<svg width="64" height="37" viewBox="0 0 64 37" fill="none" xmlns="http://www.w3.org/2000/svg">
<path d="M63.2013 16.2283L50.4239 21.9072V31.9223C50.4239 34.2082 47.1529 35.036 43.9539 35.5447C40.7889 36.048 36.5437 36.3243 32.0012 36.3243C23.5965 36.3243 13.5781 35.561 13.5781 31.9229V21.9077L9.60221 20.1414V21.4201C10.5483 22.0065 11.1957 23.1852 11.2227 24.6L11.9133 30.2222C11.9599 30.6063 11.8409 30.991 11.5859 31.2805C11.3328 31.5707 10.9666 31.7363 10.5818 31.7363H5.93985C5.55507 31.7363 5.18945 31.5701 4.93571 31.2805C4.68078 30.9904 4.5617 30.6063 4.60838 30.2222L5.29895 24.6C5.32587 23.1852 5.97336 22.0053 6.91944 21.4201V18.9494L0.798862 16.2296C0.313545 16.0141 -1.52588e-05 15.5294 -1.52588e-05 14.9954C-1.52588e-05 14.4615 0.312363 13.9786 0.797668 13.7631L31.458 0.116489C31.8039 -0.0388298 32.1976 -0.0388298 32.5435 0.116489L63.2023 13.7619C63.6876 13.9774 64 14.462 64 14.9942C64 15.5288 63.6864 16.0128 63.2011 16.2283L63.2013 16.2283ZM9.06542 29.038L8.55198 24.8534C8.54539 24.7981 8.5424 24.7427 8.5424 24.6873C8.5424 24.2099 8.37605 23.8824 8.26234 23.7554C8.14864 23.8836 7.98228 24.2111 7.98228 24.6873C7.98228 24.7427 7.97989 24.7981 7.97271 24.8534L7.45927 29.038H9.06542ZM47.635 31.7622C46.8026 30.8008 41.7346 29.2 32 29.2C22.2201 29.2 17.1533 30.8158 16.3604 31.7597C17.565 32.5628 22.9657 33.6253 32 33.6253C41.0212 33.6253 46.4194 32.5671 47.635 31.7622ZM6.92055 15.9991V13.986L4.6568 14.9932L6.92055 15.9991ZM32 2.8227L9.60145 12.791V17.1887L13.5773 18.9551V17.4151C13.5773 12.3015 27.679 11.9036 32.0005 11.9036C36.3222 11.9036 50.4236 12.3015 50.4236 17.4151V18.9551L59.3441 14.9901L32 2.8227Z" fill="#01348D"/>
</svg>
